<svg width="33" height="33" viewBox="0 0 33 33" fill="none" xmlns="http://www.w3.org/2000/svg">
<path fill-rule="evenodd" clip-rule="evenodd" d="M17.875 10.0699L17.9094 10.7574H10.659L9.8835 8.00735H18.1239C17.9671 8.6701 17.875 9.35898 17.875 10.0699ZM23.375 26.5699C23.375 25.4314 22.451 24.5074 21.3125 24.5074C20.174 24.5074 19.25 25.4314 19.25 26.5699C19.25 27.7097 20.174 28.6324 21.3125 28.6324C22.451 28.6324 23.375 27.7097 23.375 26.5699ZM10.4871 20.3824L5.76813 3.88235H0L1.02163 6.63235H3.674L8.45075 23.1324H26.6544L28.4501 18.8506C27.9194 18.9496 27.3721 19.0074 26.8125 19.0074C26.3491 19.0074 25.8954 18.9606 25.4513 18.8932L24.8256 20.3824H10.4871ZM16.5 26.5699C16.5 25.43 15.576 24.5074 14.4375 24.5074C13.299 24.5074 12.375 25.4314 12.375 26.5699C12.375 27.7097 13.299 28.6324 14.4375 28.6324C15.576 28.6324 16.5 27.7097 16.5 26.5699Z" fill="#1106A0"/>
<path fill-rule="evenodd" clip-rule="evenodd" d="M20.625 10.0699C20.625 13.4867 23.3998 16.2574 26.8125 16.2574C30.228 16.2574 33 13.4867 33 10.0699C33 6.65298 30.228 3.88235 26.8125 3.88235C23.3998 3.88235 20.625 6.65298 20.625 10.0699ZM26.125 9.38235H23.375V10.7574H26.125V13.5074H27.5V10.7574H30.25V9.38235H27.5V6.63235H26.125V9.38235Z" fill="#FFA600"/>
<path d="M23.375 9.38235H26.125V6.63235H27.5V9.38235H30.25V10.7574H27.5V13.5074H26.125V10.7574H23.375V9.38235Z" fill="#1106A0"/>
</svg>
