<svg width="103" height="103" viewBox="0 0 103 103" fill="none" xmlns="http://www.w3.org/2000/svg">
<path d="M51.5 8.58333C75.1642 8.58333 94.4167 27.8357 94.4167 51.5C94.4167 75.1642 75.1642 94.4167 51.5 94.4167C27.8357 94.4167 8.58333 75.1642 8.58333 51.5C8.58333 27.8357 27.8357 8.58333 51.5 8.58333ZM51.5 0C23.0591 0 0 23.0591 0 51.5C0 79.9409 23.0591 103 51.5 103C79.9409 103 103 79.9409 103 51.5C103 23.0591 79.9409 0 51.5 0ZM70.3533 32.1875L46.1354 57.0105L34.7882 46.2556L26.8229 54.2295L46.1354 72.9583L78.3229 40.1571L70.3533 32.1875Z" fill="#464646"/>
</svg>
