<svg width="161" height="45" viewBox="0 0 161 45" fill="none" xmlns="http://www.w3.org/2000/svg">
<g clip-path="url(#clip0_223_8397)">
<path d="M21.3123 0.501953L20.8613 0.914106C20.9952 0.7592 21.1465 0.620861 21.3123 0.501953V0.501953Z" fill="#1106A0"/>
<path d="M20.0115 40.9868H17.006L16.988 40.9708H16.51V40.9868H8.25331H7.75954C7.18816 40.9868 6.63186 40.8006 6.17244 40.4556C5.71301 40.1106 5.37469 39.6251 5.20724 39.0703V39.0703L5.11931 38.6971L4.78561 37.2568L4.56015 36.2585L1.02029 20.5647V20.5418L0.914325 20.0838L0.828647 19.6991L0.255958 17.4231L0.0643097 16.6538C0.0552478 16.5617 0.0507328 16.4692 0.0507816 16.3767C0.0504508 15.6817 0.313006 15.013 0.784213 14.5089C1.25542 14.0048 1.89928 13.7038 2.58279 13.668H10.4223L14.2891 30.9967L14.341 31.2257C14.341 31.2257 14.341 31.2257 14.341 31.2394C14.3612 31.3218 14.465 31.7569 14.6115 32.3476C14.837 33.2223 15.1414 34.4427 15.4232 35.3884C15.439 35.4388 15.4525 35.4891 15.4683 35.5372C15.5575 35.7734 15.663 36.003 15.784 36.2241C16.5889 37.9621 17.8943 39.8419 20.0115 40.9868Z" fill="#FFA600"/>
<path d="M44.4206 24.9951L44.4183 25.002L44.4161 25.0157L43.7059 28.1572L43.7036 28.1618L43.6405 28.4412V28.4457L43.6382 28.4526L43.636 28.4595V28.4618L43.6337 28.4641V28.4664L43.2301 30.2592H19.6078L18.4534 25.002L18.4512 24.9951H44.4206Z" fill="#1106A0"/>
<path d="M46.4235 16.3813C46.4237 16.5628 46.4056 16.7439 46.3694 16.9217V16.9217L46.2725 17.2766L45.7381 19.2503L45.6231 19.6762H17.2141L15.8613 13.668H43.7517C44.4603 13.668 45.1399 13.9538 45.641 14.4627C46.1421 14.9715 46.4235 15.6617 46.4235 16.3813Z" fill="#1106A0"/>
<path d="M41.4039 35.4814L41.334 35.7883L40.847 37.9452L40.7027 38.5886L40.6035 39.0191C40.5472 39.198 40.4716 39.37 40.378 39.532C40.0441 40.1301 39.4995 40.5776 38.8539 40.7845C38.5689 40.8703 38.274 40.918 37.9768 40.9264L37.7829 40.9379H25.2243C22.0159 40.8257 20.6428 37.3132 20.1445 35.4883L41.4039 35.4814Z" fill="#1106A0"/>
<path d="M24.6688 4.7036L24.4434 4.92112L20.8336 8.24353H12.8047L20.8584 0.916376L21.3093 0.504224C21.7084 0.214535 22.1783 0.0421878 22.6675 0.00613068C23.1567 -0.0299265 23.6462 0.0717027 24.0822 0.299845C24.5182 0.527987 24.8839 0.873807 25.1389 1.29928C25.394 1.72476 25.5285 2.21342 25.5279 2.71153C25.5284 3.08589 25.4523 3.45629 25.3044 3.79921C25.1565 4.14213 24.9401 4.45011 24.6688 4.7036V4.7036Z" fill="#EDEDF0"/>
<path d="M21.0197 4.70326L21.2451 4.92079L24.8526 8.24319H32.8838L24.8369 0.916038L24.3859 0.503886C23.9868 0.215365 23.5171 0.0440637 23.0284 0.00877548C22.5397 -0.0265127 22.0508 0.0755753 21.6155 0.30384C21.1802 0.532105 20.8152 0.877726 20.5605 1.30279C20.3059 1.72785 20.1714 2.21593 20.1719 2.71348C20.1699 3.08668 20.2442 3.45625 20.3901 3.79876C20.536 4.14128 20.7504 4.44928 21.0197 4.70326V4.70326Z" fill="#1106A0"/>
<path d="M15.4331 35.3953C15.048 34.4167 14.7749 33.3964 14.6191 32.3545V32.3545C14.8378 33.2292 15.158 34.4496 15.4331 35.3953Z" fill="#FFA600"/>
</g>
<path d="M56.6703 38C56.4569 38 56.2756 37.9253 56.1263 37.776C55.9769 37.6267 55.9023 37.4453 55.9023 37.232V16.4C55.9023 16.1653 55.9663 15.9733 56.0943 15.824C56.2436 15.6747 56.4356 15.6 56.6703 15.6H70.7503C70.9849 15.6 71.1769 15.6747 71.3263 15.824C71.4756 15.9733 71.5503 16.1653 71.5503 16.4V18.512C71.5503 18.7467 71.4756 18.9387 71.3263 19.088C71.1769 19.216 70.9849 19.28 70.7503 19.28H60.2223V24.944H70.0463C70.2809 24.944 70.4729 25.0187 70.6223 25.168C70.7716 25.296 70.8463 25.4773 70.8463 25.712V27.696C70.8463 27.9307 70.7716 28.1227 70.6223 28.272C70.4729 28.4 70.2809 28.464 70.0463 28.464H60.2223V34.32H71.0063C71.2409 34.32 71.4329 34.3947 71.5823 34.544C71.7316 34.6933 71.8063 34.8853 71.8063 35.12V37.232C71.8063 37.4667 71.7316 37.6587 71.5823 37.808C71.4329 37.936 71.2409 38 71.0063 38H56.6703ZM76.5765 38C76.3632 38 76.1818 37.9253 76.0325 37.776C75.8832 37.6267 75.8085 37.4453 75.8085 37.232V16.4C75.8085 16.1653 75.8725 15.9733 76.0005 15.824C76.1498 15.6747 76.3418 15.6 76.5765 15.6H84.8645C87.4672 15.6 89.5045 16.208 90.9765 17.424C92.4698 18.64 93.2165 20.368 93.2165 22.608C93.2165 24.1653 92.8325 25.4773 92.0645 26.544C91.3178 27.5893 90.2725 28.3467 88.9285 28.816L93.6005 36.976C93.6645 37.104 93.6965 37.2213 93.6965 37.328C93.6965 37.52 93.6218 37.68 93.4725 37.808C93.3445 37.936 93.1952 38 93.0245 38H90.1125C89.7712 38 89.5045 37.9253 89.3125 37.776C89.1418 37.6267 88.9818 37.4133 88.8325 37.136L84.7045 29.552H80.2565V37.232C80.2565 37.4453 80.1818 37.6267 80.0325 37.776C79.9045 37.9253 79.7232 38 79.4885 38H76.5765ZM84.7685 25.936C86.0485 25.936 87.0085 25.648 87.6485 25.072C88.3098 24.496 88.6405 23.664 88.6405 22.576C88.6405 21.488 88.3098 20.6453 87.6485 20.048C87.0085 19.4507 86.0485 19.152 84.7685 19.152H80.2565V25.936H84.7685ZM98.1078 38C97.8944 38 97.7131 37.9253 97.5638 37.776C97.4144 37.6267 97.3398 37.4453 97.3398 37.232V16.368C97.3398 16.1333 97.4144 15.952 97.5638 15.824C97.7131 15.6747 97.8944 15.6 98.1078 15.6H101.116C101.35 15.6 101.532 15.6747 101.66 15.824C101.809 15.952 101.884 16.1333 101.884 16.368V37.232C101.884 37.4453 101.809 37.6267 101.66 37.776C101.532 37.9253 101.35 38 101.116 38H98.1078ZM115.542 38.32C112.598 38.32 110.316 37.5627 108.694 36.048C107.094 34.5333 106.241 32.4 106.134 29.648C106.113 29.072 106.102 28.1333 106.102 26.832C106.102 25.5093 106.113 24.5493 106.134 23.952C106.241 21.2213 107.105 19.0987 108.726 17.584C110.369 16.048 112.641 15.28 115.542 15.28C117.441 15.28 119.094 15.6107 120.502 16.272C121.91 16.912 122.998 17.7973 123.766 18.928C124.534 20.0373 124.94 21.296 124.982 22.704V22.768C124.982 22.9387 124.908 23.088 124.758 23.216C124.63 23.3227 124.481 23.376 124.31 23.376H121.27C121.014 23.376 120.822 23.3227 120.694 23.216C120.566 23.1093 120.46 22.9067 120.374 22.608C120.033 21.264 119.468 20.3253 118.678 19.792C117.889 19.2373 116.833 18.96 115.51 18.96C112.438 18.96 110.838 20.6773 110.71 24.112C110.689 24.688 110.678 25.5733 110.678 26.768C110.678 27.9627 110.689 28.8693 110.71 29.488C110.838 32.9227 112.438 34.64 115.51 34.64C116.833 34.64 117.889 34.3627 118.678 33.808C119.489 33.2533 120.054 32.3147 120.374 30.992C120.438 30.6933 120.534 30.4907 120.662 30.384C120.812 30.2773 121.014 30.224 121.27 30.224H124.31C124.502 30.224 124.662 30.288 124.79 30.416C124.94 30.544 125.004 30.704 124.982 30.896C124.94 32.304 124.534 33.5733 123.766 34.704C122.998 35.8133 121.91 36.6987 120.502 37.36C119.094 38 117.441 38.32 115.542 38.32ZM129.545 38C129.332 38 129.151 37.9253 129.001 37.776C128.852 37.6267 128.777 37.4453 128.777 37.232V16.4C128.777 16.1653 128.841 15.9733 128.969 15.824C129.119 15.6747 129.311 15.6 129.545 15.6H132.457C132.692 15.6 132.873 15.6747 133.001 15.824C133.151 15.9733 133.225 16.1653 133.225 16.4V24.656H142.665V16.4C142.665 16.1653 142.729 15.9733 142.857 15.824C143.007 15.6747 143.199 15.6 143.433 15.6H146.313C146.548 15.6 146.74 15.6747 146.889 15.824C147.039 15.9733 147.113 16.1653 147.113 16.4V37.232C147.113 37.4667 147.039 37.6587 146.889 37.808C146.74 37.936 146.548 38 146.313 38H143.433C143.22 38 143.039 37.9253 142.889 37.776C142.74 37.6267 142.665 37.4453 142.665 37.232V28.656H133.225V37.232C133.225 37.4453 133.151 37.6267 133.001 37.776C132.873 37.9253 132.692 38 132.457 38H129.545Z" fill="#1106A0"/>
<defs>
<clipPath id="clip0_223_8397">
<rect width="46.372" height="41" fill="white" transform="translate(0.0507812)"/>
</clipPath>
</defs>
</svg>
