<svg width="887" height="315" viewBox="0 0 887 315" fill="none" xmlns="http://www.w3.org/2000/svg">
<g clip-path="url(#clip0_1244_2262)">
<path d="M152.07 3.89941L148.84 6.79941C149.799 5.70967 150.883 4.73634 152.07 3.89941Z" fill="#1106A0" stroke="#464646" stroke-width="0.75" stroke-miterlimit="10"/>
<path d="M163.14 289.11H121.28L121.15 288.99H117.78V289.1H58.7201H55.1201C51.0337 289.1 47.055 287.79 43.7683 285.362C40.4816 282.934 38.0603 279.516 36.8601 275.61L36.2601 273L33.9301 262.83L32.3101 255.83L6.94007 145.22V145.06L6.18007 141.75V141.7L5.50007 139L1.50007 123.12L0.100074 117.67C0.0315911 117.025 -0.00179152 116.378 7.40574e-05 115.73C-0.00625449 110.83 1.87132 106.116 5.24421 102.563C8.61709 99.0092 13.2271 96.8886 18.1201 96.6396H74.2201L101.87 218.64L102.25 220.3C102.25 220.3 102.25 220.3 102.25 220.39C102.61 221.88 106.88 239.54 110.32 250.68C114.923 261.756 122.655 271.25 132.57 278C132.602 278.03 132.639 278.054 132.68 278.07C133.01 278.3 133.35 278.53 133.68 278.74C136.104 280.338 138.641 281.758 141.27 282.99L141.81 283.25L141.95 283.31C147.904 286.147 154.264 288.04 160.8 288.92L161.8 289.02C162.4 289.08 162.8 289.11 163.13 289.12L163.14 289.11Z" fill="#FFA600"/>
<path d="M311.04 176.41L311.03 176.47L311.01 176.56L305.92 198.69L305.91 198.72L305.47 200.69L305.45 200.72L305.44 200.76V200.77L305.43 200.82L305.42 200.83V200.85V200.87L302.52 213.48H133.57L125.31 176.47L125.3 176.41H311.04Z" fill="#1106A0"/>
<path d="M325.36 115.74C325.36 117.019 325.233 118.295 324.98 119.55L324.3 122.02L320.46 136L319.64 139H116.5L106.88 96.6797H306.26C311.319 96.6797 316.171 98.6865 319.751 102.26C323.332 105.833 325.349 110.681 325.36 115.74Z" fill="#1106A0"/>
<path d="M294 250.729L293.5 252.879L290 267.999L289 272.529L288.3 275.529C287.908 276.784 287.385 277.994 286.74 279.139C284.358 283.354 280.466 286.509 275.85 287.969C273.807 288.566 271.697 288.902 269.57 288.969C268.8 289.019 268.26 289.029 268.18 289.039H178.36C155.36 288.229 145.59 263.499 142.03 250.649L294 250.729Z" fill="#1106A0"/>
<path d="M176.09 33.4997L174.47 34.9997L148.66 58.4397H91.2202L148.84 6.79966L152.07 3.89966C156.029 1.12337 160.894 -0.0480755 165.682 0.621662C170.471 1.2914 174.828 3.75247 177.873 7.50834C180.918 11.2642 182.426 16.0353 182.091 20.8591C181.756 25.6828 179.605 30.2001 176.07 33.4997H176.09Z" fill="#EDEDF0"/>
<path d="M150 33.4997L151.66 34.9997L177.46 58.4097H234.9L177.28 6.79966L174.05 3.89966C170.091 1.12337 165.227 -0.0480755 160.438 0.621662C155.649 1.2914 151.293 3.75247 148.247 7.50834C145.202 11.2642 143.695 16.0353 144.029 20.8591C144.364 25.6828 146.515 30.2001 150.05 33.4997H150Z" fill="#1106A0" stroke="#464646" stroke-width="0.75" stroke-miterlimit="10"/>
<path d="M380.697 107.705C380.697 106.624 380.98 105.774 381.546 105.156C382.164 104.487 383.014 104.152 384.095 104.152H460.799C461.932 104.152 462.807 104.487 463.425 105.156C464.043 105.826 464.352 106.727 464.352 107.86V127.016C464.352 127.892 464.043 128.741 463.425 129.565C462.807 130.338 461.906 130.724 460.722 130.724H410.667V149.803H449.29C450.268 149.803 451.066 150.035 451.684 150.499C452.354 150.962 452.688 151.734 452.688 152.816V169.501C452.688 170.222 452.405 170.917 451.839 171.586C451.272 172.256 450.448 172.59 449.367 172.59H410.667V192.288H462.576C464.893 192.288 466.052 193.472 466.052 195.841V215.307C466.052 215.822 465.846 216.285 465.434 216.697C465.228 218.139 464.172 218.86 462.267 218.86H384.095C383.065 218.86 382.241 218.602 381.624 218.087C381.006 217.521 380.697 216.671 380.697 215.538V107.705ZM485.101 107.705C485.101 106.624 485.384 105.774 485.951 105.156C486.517 104.487 487.367 104.152 488.5 104.152H538.4C543.704 104.152 548.673 105.156 553.308 107.164C557.942 109.121 561.985 111.799 565.435 115.198C568.885 118.597 571.589 122.588 573.546 127.171C575.554 131.702 576.558 136.543 576.558 141.693C576.558 145.194 576.069 148.542 575.091 151.734C574.164 154.876 572.851 157.837 571.151 160.618C569.452 163.347 567.418 165.844 565.049 168.11C562.732 170.325 560.182 172.23 557.402 173.826L577.254 211.213C577.614 211.934 578.077 212.783 578.644 213.762C579.21 214.74 579.494 215.59 579.494 216.311C579.494 217.135 579.21 217.778 578.644 218.242C578.129 218.654 577.408 218.86 576.481 218.86H549.986C549.111 218.86 548.313 218.602 547.592 218.087C546.922 217.572 546.484 216.877 546.278 216.002L527.508 180.701H514.995V215.538C514.995 217.753 513.81 218.86 511.441 218.86H488.5C487.47 218.86 486.646 218.602 486.028 218.087C485.41 217.521 485.101 216.671 485.101 215.538V107.705ZM545.583 142.002C545.583 140.457 545.3 138.912 544.734 137.367C544.167 135.822 543.369 134.406 542.339 133.119C541.309 131.831 540.073 130.75 538.631 129.874C537.189 128.999 535.593 128.432 533.842 128.175C532.4 128.072 531.036 127.995 529.748 127.943C528.512 127.84 527.148 127.789 525.654 127.789H514.995V156.137H529.207C530.134 156.137 530.958 156.112 531.679 156.06C532.4 156.009 533.198 155.931 534.074 155.828C535.876 155.622 537.498 155.107 538.94 154.284C540.382 153.408 541.592 152.352 542.571 151.116C543.549 149.829 544.296 148.413 544.811 146.868C545.326 145.272 545.583 143.65 545.583 142.002ZM593.88 107.551C593.88 106.624 594.164 105.826 594.73 105.156C595.297 104.487 596.146 104.152 597.279 104.152H619.989C620.761 104.152 621.585 104.461 622.461 105.079C623.336 105.697 623.774 106.521 623.774 107.551V215.461C623.774 217.727 622.512 218.86 619.989 218.86H597.279C595.013 218.86 593.88 217.727 593.88 215.461V107.551ZM736.156 112.494C737.032 113.009 737.675 113.679 738.087 114.503C738.499 115.327 738.422 116.305 737.856 117.438L724.801 135.977C724.235 136.852 723.617 137.367 722.947 137.521C722.329 137.624 721.557 137.393 720.63 136.826C718.107 134.921 715.326 133.453 712.288 132.423C709.249 131.393 706.031 130.878 702.632 130.878C698.409 130.878 694.521 131.677 690.968 133.273C687.415 134.869 684.351 137.058 681.776 139.839C679.201 142.62 677.193 145.864 675.751 149.572C674.309 153.279 673.588 157.245 673.588 161.467C673.588 165.69 674.309 169.655 675.751 173.363C677.193 177.019 679.201 180.238 681.776 183.018C684.351 185.748 687.415 187.911 690.968 189.507C694.521 191.103 698.409 191.902 702.632 191.902C706.031 191.902 709.275 191.387 712.365 190.357C715.455 189.275 718.261 187.782 720.785 185.876C721.711 185.31 722.484 185.078 723.102 185.181C723.72 185.284 724.338 185.748 724.956 186.572L738.165 205.574C738.731 206.707 738.808 207.659 738.396 208.432C737.984 209.204 737.341 209.848 736.465 210.363C731.625 213.607 726.398 216.131 720.785 217.933C715.223 219.684 709.352 220.559 703.173 220.559C697.714 220.559 692.462 219.864 687.415 218.474C682.42 217.083 677.734 215.101 673.356 212.526C668.979 209.951 664.988 206.887 661.384 203.334C657.83 199.729 654.766 195.764 652.191 191.438C649.617 187.061 647.634 182.375 646.244 177.38C644.853 172.333 644.158 167.08 644.158 161.622C644.158 156.163 644.853 150.936 646.244 145.941C647.634 140.894 649.617 136.183 652.191 131.805C654.766 127.377 657.83 123.36 661.384 119.755C664.988 116.151 668.979 113.086 673.356 110.563C677.734 107.988 682.42 106.006 687.415 104.615C692.462 103.173 697.714 102.452 703.173 102.452C709.352 102.452 715.171 103.328 720.63 105.079C726.14 106.778 731.316 109.25 736.156 112.494ZM757.723 107.551C757.775 106.675 758.084 105.903 758.65 105.233C759.268 104.512 760.066 104.152 761.045 104.152H783.986C784.759 104.152 785.557 104.487 786.381 105.156C787.205 105.774 787.617 106.572 787.617 107.551V144.164H826.007V107.551C826.007 106.624 826.316 105.826 826.934 105.156C827.604 104.487 828.453 104.152 829.483 104.152H852.116C853.146 104.152 854.047 104.409 854.819 104.924C855.592 105.439 855.978 106.263 855.978 107.396V215.461C855.978 216.594 855.643 217.444 854.974 218.01C854.304 218.577 853.429 218.86 852.347 218.86H829.483C828.453 218.86 827.604 218.577 826.934 218.01C826.316 217.444 826.007 216.594 826.007 215.461V171.586H787.617V215.461C787.617 216.543 787.256 217.392 786.535 218.01C785.866 218.577 784.939 218.86 783.754 218.86H761.045C758.882 218.86 757.775 217.856 757.723 215.847V107.551Z" fill="#464646"/>
<path d="M418.437 259.506V277.888C417.816 278.808 416.827 279.842 415.471 280.992C414.114 282.119 412.24 283.107 409.849 283.958C407.481 284.786 404.423 285.2 400.676 285.2C397.618 285.2 394.801 284.671 392.226 283.613C389.674 282.532 387.456 280.969 385.57 278.923C383.708 276.854 382.26 274.348 381.225 271.405C380.213 268.439 379.707 265.082 379.707 261.334V257.437C379.707 253.69 380.144 250.344 381.018 247.401C381.915 244.459 383.225 241.964 384.95 239.918C386.674 237.848 388.789 236.285 391.295 235.227C393.801 234.147 396.675 233.607 399.917 233.607C403.757 233.607 406.964 234.273 409.539 235.607C412.137 236.917 414.16 238.734 415.609 241.056C417.08 243.378 418.023 246.022 418.437 248.988H411.781C411.482 247.172 410.884 245.516 409.987 244.022C409.114 242.527 407.861 241.332 406.228 240.435C404.596 239.515 402.492 239.055 399.917 239.055C397.595 239.055 395.583 239.481 393.882 240.332C392.18 241.182 390.778 242.401 389.674 243.987C388.571 245.574 387.743 247.493 387.191 249.747C386.662 252 386.398 254.54 386.398 257.368V261.334C386.398 264.231 386.731 266.818 387.398 269.094C388.088 271.37 389.065 273.313 390.33 274.922C391.594 276.509 393.1 277.716 394.847 278.543C396.618 279.371 398.572 279.785 400.71 279.785C403.078 279.785 404.998 279.59 406.47 279.199C407.941 278.785 409.091 278.302 409.918 277.75C410.746 277.175 411.378 276.635 411.815 276.129V264.886H400.193V259.506H418.437ZM429.473 234.296H446.096C449.866 234.296 453.05 234.871 455.648 236.021C458.27 237.17 460.258 238.872 461.615 241.125C462.994 243.355 463.684 246.102 463.684 249.367C463.684 251.666 463.213 253.77 462.27 255.678C461.35 257.564 460.017 259.173 458.27 260.507C456.545 261.817 454.476 262.794 452.062 263.438L450.199 264.162H434.577L434.508 258.748H446.302C448.694 258.748 450.682 258.334 452.269 257.506C453.855 256.656 455.051 255.517 455.855 254.092C456.66 252.666 457.062 251.092 457.062 249.367C457.062 247.436 456.683 245.746 455.924 244.298C455.166 242.849 453.97 241.734 452.338 240.952C450.728 240.148 448.648 239.745 446.096 239.745H436.129V284.51H429.473V234.296ZM458.821 284.51L446.613 261.748L453.545 261.714L465.926 284.096V284.51H458.821ZM511.656 257.817V260.989C511.656 264.76 511.185 268.14 510.242 271.129C509.299 274.118 507.943 276.658 506.172 278.75C504.402 280.843 502.275 282.441 499.792 283.544C497.332 284.648 494.573 285.2 491.515 285.2C488.549 285.2 485.825 284.648 483.342 283.544C480.882 282.441 478.743 280.843 476.927 278.75C475.134 276.658 473.743 274.118 472.754 271.129C471.766 268.14 471.271 264.76 471.271 260.989V257.817C471.271 254.046 471.754 250.678 472.72 247.712C473.708 244.723 475.099 242.182 476.893 240.09C478.686 237.975 480.813 236.365 483.273 235.262C485.756 234.158 488.48 233.607 491.446 233.607C494.504 233.607 497.263 234.158 499.723 235.262C502.206 236.365 504.333 237.975 506.103 240.09C507.897 242.182 509.265 244.723 510.207 247.712C511.173 250.678 511.656 254.046 511.656 257.817ZM505.069 260.989V257.748C505.069 254.759 504.758 252.115 504.138 249.816C503.54 247.516 502.655 245.585 501.482 244.022C500.31 242.458 498.873 241.274 497.171 240.469C495.493 239.665 493.585 239.262 491.446 239.262C489.377 239.262 487.503 239.665 485.825 240.469C484.169 241.274 482.744 242.458 481.548 244.022C480.376 245.585 479.468 247.516 478.824 249.816C478.18 252.115 477.858 254.759 477.858 257.748V260.989C477.858 264.001 478.18 266.668 478.824 268.99C479.468 271.29 480.387 273.232 481.583 274.819C482.801 276.382 484.238 277.566 485.894 278.371C487.572 279.176 489.446 279.578 491.515 279.578C493.676 279.578 495.596 279.176 497.275 278.371C498.953 277.566 500.367 276.382 501.517 274.819C502.689 273.232 503.574 271.29 504.172 268.99C504.77 266.668 505.069 264.001 505.069 260.989ZM551.937 268.542H558.559C558.214 271.715 557.306 274.554 555.834 277.061C554.363 279.567 552.282 281.555 549.592 283.027C546.902 284.475 543.545 285.2 539.522 285.2C536.579 285.2 533.9 284.648 531.486 283.544C529.095 282.441 527.037 280.877 525.313 278.854C523.588 276.808 522.255 274.359 521.312 271.508C520.393 268.634 519.933 265.438 519.933 261.921V256.92C519.933 253.402 520.393 250.218 521.312 247.367C522.255 244.493 523.6 242.033 525.347 239.987C527.118 237.94 529.244 236.365 531.727 235.262C534.211 234.158 537.004 233.607 540.108 233.607C543.901 233.607 547.109 234.319 549.73 235.745C552.351 237.17 554.386 239.147 555.834 241.677C557.306 244.183 558.214 247.091 558.559 250.402H551.937C551.615 248.057 551.017 246.045 550.144 244.367C549.27 242.665 548.028 241.355 546.419 240.435C544.81 239.515 542.706 239.055 540.108 239.055C537.878 239.055 535.912 239.481 534.211 240.332C532.532 241.182 531.118 242.389 529.969 243.953C528.842 245.516 527.991 247.39 527.417 249.574C526.842 251.758 526.554 254.184 526.554 256.851V261.921C526.554 264.381 526.807 266.691 527.313 268.853C527.842 271.014 528.635 272.911 529.693 274.543C530.75 276.175 532.095 277.463 533.728 278.406C535.36 279.325 537.291 279.785 539.522 279.785C542.35 279.785 544.603 279.337 546.281 278.44C547.96 277.543 549.224 276.256 550.075 274.577C550.948 272.899 551.569 270.887 551.937 268.542ZM599.53 279.095V284.51H572.94V279.095H599.53ZM574.285 234.296V284.51H567.629V234.296H574.285ZM596.012 255.885V261.3H572.94V255.885H596.012ZM599.185 234.296V239.745H572.94V234.296H599.185ZM607.772 234.296H624.395C628.165 234.296 631.35 234.871 633.948 236.021C636.569 237.17 638.558 238.872 639.914 241.125C641.294 243.355 641.983 246.102 641.983 249.367C641.983 251.666 641.512 253.77 640.569 255.678C639.65 257.564 638.316 259.173 636.569 260.507C634.845 261.817 632.775 262.794 630.361 263.438L628.499 264.162H612.876L612.807 258.748H624.602C626.993 258.748 628.982 258.334 630.568 257.506C632.155 256.656 633.35 255.517 634.155 254.092C634.959 252.666 635.362 251.092 635.362 249.367C635.362 247.436 634.982 245.746 634.224 244.298C633.465 242.849 632.269 241.734 630.637 240.952C629.028 240.148 626.947 239.745 624.395 239.745H614.428V284.51H607.772V234.296ZM637.121 284.51L624.912 261.748L631.844 261.714L644.225 284.096V284.51H637.121ZM651.95 234.296L664.986 259.506L678.057 234.296H685.61L668.297 265.749V284.51H661.641V265.749L644.329 234.296H651.95Z" fill="#858686"/>
</g>
<defs>
<clipPath id="clip0_1244_2262">
<rect width="886.83" height="314.53" fill="white"/>
</clipPath>
</defs>
</svg>
