<svg width="141" height="36" viewBox="0 0 141 36" fill="none" xmlns="http://www.w3.org/2000/svg">
<path d="M13.7551 3.2124L13.4634 3.45832C13.55 3.3659 13.6479 3.28335 13.7551 3.2124V3.2124Z" fill="#1106A0"/>
<path d="M12.9135 27.2564H10.9691L10.9574 27.2469H10.6482V27.2564H5.30658H4.98714C4.61749 27.2564 4.25759 27.1459 3.96037 26.941C3.66315 26.7361 3.44428 26.4477 3.33594 26.1182V26.1182L3.27905 25.8965L3.06317 25.0411L2.91731 24.4482L0.627221 15.1271V15.1135L0.558665 14.8416L0.503236 14.6131L0.132738 13.2613L0.00875217 12.8044C0.00288962 12.7497 -3.13492e-05 12.6948 2.53698e-07 12.6398C-0.000213809 12.227 0.169645 11.8299 0.474489 11.5305C0.779334 11.2311 1.19587 11.0523 1.63807 11.031H6.70981L9.2114 21.323L9.24495 21.459C9.24495 21.459 9.24495 21.459 9.24495 21.4672C9.25807 21.5161 9.32517 21.7745 9.41998 22.1254C9.56585 22.6449 9.76277 23.3697 9.9451 23.9314C9.95531 23.9613 9.96406 23.9912 9.97427 24.0198C10.032 24.1601 10.1002 24.2964 10.1785 24.4278C10.6992 25.46 11.5438 26.5765 12.9135 27.2564Z" fill="#FFA600"/>
<path d="M28.7048 17.7582L28.7034 17.7623L28.7019 17.7704L28.2424 19.6363L28.241 19.639L28.2001 19.8049V19.8076L28.1987 19.8117L28.1972 19.8158V19.8171L28.1958 19.8185V19.8198L27.9347 20.8847H12.6523L11.9055 17.7623L11.9041 17.7582H28.7048Z" fill="white"/>
<path d="M29.9999 12.6425C30.0001 12.7504 29.9883 12.8579 29.9649 12.9635V12.9635L29.9022 13.1743L29.5565 14.3465L29.4821 14.5995H11.1031L10.2279 11.031H28.2714C28.7299 11.031 29.1695 11.2008 29.4937 11.503C29.8178 11.8052 29.9999 12.2151 29.9999 12.6425Z" fill="white"/>
<path d="M26.7538 23.9863L26.7085 24.1686L26.3935 25.4496L26.3001 25.8318L26.2359 26.0874C26.1995 26.1937 26.1506 26.2958 26.0901 26.3921C25.874 26.7473 25.5217 27.0131 25.104 27.1359C24.9196 27.1869 24.7289 27.2153 24.5366 27.2203L24.4112 27.2271H16.2865C14.2108 27.1604 13.3225 25.0743 13.0001 23.9904L26.7538 23.9863Z" fill="white"/>
<path d="M15.927 5.70653L15.7812 5.83572L13.4459 7.80899H8.25159L13.4619 3.45719L13.7536 3.21241C14.0118 3.04035 14.3158 2.93799 14.6323 2.91657C14.9488 2.89516 15.2654 2.95552 15.5475 3.09102C15.8296 3.22652 16.0661 3.43191 16.2311 3.68461C16.3961 3.93732 16.4832 4.22754 16.4828 4.52338C16.4831 4.74573 16.4339 4.96572 16.3382 5.16939C16.2425 5.37306 16.1025 5.55597 15.927 5.70653V5.70653Z" fill="#EDEDF0"/>
<path d="M13.5654 5.70715L13.7113 5.83635L16.0452 7.80962H21.2409L16.0349 3.45782L15.7432 3.21303C15.485 3.04167 15.1811 2.93993 14.865 2.91897C14.5488 2.89801 14.2326 2.95864 13.9509 3.09422C13.6693 3.22979 13.4331 3.43506 13.2684 3.68752C13.1037 3.93997 13.0167 4.22986 13.017 4.52537C13.0157 4.74702 13.0637 4.96652 13.1581 5.16995C13.2525 5.37338 13.3912 5.55631 13.5654 5.70715V5.70715Z" fill="white"/>
<path d="M9.95089 23.9349C9.70174 23.3537 9.52505 22.7477 9.42432 22.1289V22.1289C9.56581 22.6484 9.77293 23.3733 9.95089 23.9349Z" fill="#FFA600"/>
<path d="M50.8794 29C50.666 29 50.4847 28.936 50.3354 28.808C50.2074 28.6587 50.1434 28.4773 50.1434 28.264V7.368C50.1434 7.13333 50.2074 6.952 50.3354 6.824C50.4847 6.67467 50.666 6.6 50.8794 6.6H64.0954C64.3087 6.6 64.4794 6.67467 64.6074 6.824C64.7567 6.952 64.8314 7.13333 64.8314 7.368V8.584C64.8314 8.79733 64.7674 8.97867 64.6394 9.128C64.5114 9.256 64.33 9.32 64.0954 9.32H53.2154V16.328H63.3914C63.6047 16.328 63.7754 16.4027 63.9034 16.552C64.0527 16.68 64.1274 16.8613 64.1274 17.096V18.28C64.1274 18.4933 64.0527 18.6747 63.9034 18.824C63.7754 18.952 63.6047 19.016 63.3914 19.016H53.2154V26.28H64.3514C64.586 26.28 64.7674 26.344 64.8954 26.472C65.0234 26.6 65.0874 26.7813 65.0874 27.016V28.264C65.0874 28.4773 65.0127 28.6587 64.8634 28.808C64.7354 28.936 64.5647 29 64.3514 29H50.8794ZM70.2856 29C70.0723 29 69.891 28.936 69.7416 28.808C69.6136 28.6587 69.5496 28.4773 69.5496 28.264V7.368C69.5496 7.13333 69.6136 6.952 69.7416 6.824C69.891 6.67467 70.0723 6.6 70.2856 6.6H78.0936C80.547 6.6 82.467 7.176 83.8536 8.328C85.2403 9.48 85.9336 11.144 85.9336 13.32C85.9336 14.9413 85.5283 16.2747 84.7176 17.32C83.9283 18.3653 82.8083 19.0907 81.3576 19.496L86.2856 28.008C86.3496 28.136 86.3816 28.2533 86.3816 28.36C86.3816 28.5307 86.307 28.68 86.1576 28.808C86.0296 28.936 85.8803 29 85.7096 29H84.1736C83.8536 29 83.5976 28.9253 83.4056 28.776C83.235 28.6267 83.075 28.4133 82.9256 28.136L78.2856 20.008H72.6856V28.264C72.6856 28.4773 72.611 28.6587 72.4616 28.808C72.3123 28.936 72.131 29 71.9176 29H70.2856ZM77.9656 17.288C81.1443 17.288 82.7336 15.9547 82.7336 13.288C82.7336 10.6213 81.1443 9.288 77.9656 9.288H72.6856V17.288H77.9656ZM91.2544 29C91.041 29 90.8597 28.936 90.7104 28.808C90.5824 28.6587 90.5184 28.4773 90.5184 28.264V7.336C90.5184 7.12267 90.5824 6.952 90.7104 6.824C90.8597 6.67467 91.041 6.6 91.2544 6.6H92.9504C93.1637 6.6 93.3344 6.67467 93.4624 6.824C93.6117 6.952 93.6864 7.12267 93.6864 7.336V28.264C93.6864 28.4773 93.6117 28.6587 93.4624 28.808C93.3344 28.936 93.1637 29 92.9504 29H91.2544ZM107.332 29.32C104.474 29.32 102.298 28.552 100.804 27.016C99.3324 25.48 98.543 23.3573 98.4364 20.648C98.415 20.072 98.4044 19.1333 98.4044 17.832C98.4044 16.5093 98.415 15.5493 98.4364 14.952C98.543 12.264 99.343 10.152 100.836 8.616C102.33 7.05867 104.495 6.28 107.332 6.28C109.231 6.28 110.842 6.62133 112.164 7.304C113.487 7.96533 114.49 8.84 115.172 9.928C115.855 11.016 116.228 12.1787 116.292 13.416V13.48C116.292 13.6507 116.218 13.8 116.068 13.928C115.94 14.0347 115.791 14.088 115.62 14.088H113.86C113.434 14.088 113.167 13.8427 113.06 13.352C112.698 11.752 112.047 10.632 111.108 9.992C110.17 9.33067 108.911 9 107.332 9C103.663 9 101.764 11.0373 101.636 15.112C101.615 15.688 101.604 16.5733 101.604 17.768C101.604 18.9627 101.615 19.8693 101.636 20.488C101.764 24.5627 103.663 26.6 107.332 26.6C108.911 26.6 110.17 26.28 111.108 25.64C112.068 24.9787 112.719 23.848 113.06 22.248C113.124 21.9707 113.22 21.7787 113.348 21.672C113.476 21.5653 113.647 21.512 113.86 21.512H115.62C115.812 21.512 115.972 21.576 116.1 21.704C116.25 21.8107 116.314 21.96 116.292 22.152C116.228 23.4107 115.855 24.584 115.172 25.672C114.49 26.76 113.487 27.6453 112.164 28.328C110.842 28.9893 109.231 29.32 107.332 29.32ZM121.317 29C121.104 29 120.922 28.936 120.773 28.808C120.645 28.6587 120.581 28.4773 120.581 28.264V7.368C120.581 7.13333 120.645 6.952 120.773 6.824C120.922 6.67467 121.104 6.6 121.317 6.6H122.949C123.184 6.6 123.365 6.67467 123.493 6.824C123.642 6.952 123.717 7.13333 123.717 7.368V16.2H134.725V7.368C134.725 7.13333 134.789 6.952 134.917 6.824C135.066 6.67467 135.248 6.6 135.461 6.6H137.093C137.328 6.6 137.509 6.67467 137.637 6.824C137.786 6.952 137.861 7.13333 137.861 7.368V28.264C137.861 28.4773 137.786 28.6587 137.637 28.808C137.488 28.936 137.306 29 137.093 29H135.461C135.248 29 135.066 28.936 134.917 28.808C134.789 28.6587 134.725 28.4773 134.725 28.264V19.08H123.717V28.264C123.717 28.4773 123.642 28.6587 123.493 28.808C123.344 28.936 123.162 29 122.949 29H121.317Z" fill="white"/>
</svg>
